<?xml version="1.0" standalone="no"?>
<!DOCTYPE svg PUBLIC "-//W3C//DTD SVG 20010904//EN"
 "http://www.w3.org/TR/2001/REC-SVG-20010904/DTD/svg10.dtd">
<svg version="1.0" xmlns="http://www.w3.org/2000/svg"
 width="500.000000pt" height="500.000000pt" viewBox="0 0 500.000000 500.000000"
 preserveAspectRatio="xMidYMid meet">

<g transform="translate(0.000000,500.000000) scale(0.100000,-0.100000)"
fill="#000000" stroke="none">
<path d="M1287 4565 c-22 -7 -50 -24 -64 -37 -14 -12 -153 -193 -309 -400
l-284 -378 0 -1582 c0 -1523 1 -1585 19 -1624 23 -50 53 -81 106 -105 38 -18
105 -19 1746 -19 l1705 0 53 26 c34 17 62 41 79 67 l27 41 3 1599 2 1600 -276
368 c-152 203 -293 384 -314 403 -21 19 -56 39 -77 45 -26 7 -413 11 -1208 11
-965 -1 -1177 -3 -1208 -15z m2416 -605 l156 -210 -1354 0 c-745 0 -1355 3
-1355 6 0 4 69 99 152 210 l153 204 1046 0 1046 0 156 -210z m-1823 -1283 c0
-274 11 -343 72 -467 47 -94 170 -214 268 -262 184 -91 376 -91 560 0 94 46
219 167 268 259 61 116 72 185 72 465 l0 248 216 0 216 0 -5 -277 c-5 -305
-13 -359 -71 -515 -52 -139 -118 -239 -236 -359 -80 -81 -128 -120 -200 -162
-176 -104 -344 -150 -545 -149 -289 1 -520 97 -726 302 -160 159 -247 316
-290 525 -16 75 -19 136 -19 363 l0 272 210 0 210 0 0 -243z"/>
</g>
</svg>
